<mxfile host="app.diagrams.net" modified="2023-04-09T14:30:04.223Z" agent="5.0 (Macintosh; Intel Mac OS X 10_15_7) AppleWebKit/537.36 (KHTML, like Gecko) Chrome/111.0.0.0 Safari/537.36" etag="Bi0wnLg436L0zAeUlw7d" version="21.0.2" type="github">
  <diagram id="zSmLxx8aBMfxyJzAMv5f" name="第 1 页">
    <mxGraphModel dx="1434" dy="704" grid="1" gridSize="10" guides="1" tooltips="1" connect="1" arrows="1" fold="1" page="1" pageScale="1" pageWidth="827" pageHeight="3169" math="0" shadow="0">
      <root>
        <mxCell id="0" />
        <mxCell id="1" parent="0" />
        <mxCell id="RoxqiaxIG3euoWtshmLt-1" value="[[0,1],[0,2],[2,3],[3,4],[3,5],[5,6],[2,7],[6,7],[7,8],[3,8],[5,8],[8,9],[3,9],[6,9]]" style="text;html=1;strokeColor=none;fillColor=none;align=center;verticalAlign=middle;whiteSpace=wrap;rounded=0;fontSize=22;" parent="1" vertex="1">
          <mxGeometry x="80" y="50" width="700" height="30" as="geometry" />
        </mxCell>
        <mxCell id="RoxqiaxIG3euoWtshmLt-5" value="" style="group" parent="1" vertex="1" connectable="0">
          <mxGeometry x="280" y="130" width="60" height="60" as="geometry" />
        </mxCell>
        <mxCell id="RoxqiaxIG3euoWtshmLt-2" value="" style="ellipse;whiteSpace=wrap;html=1;aspect=fixed;" parent="RoxqiaxIG3euoWtshmLt-5" vertex="1">
          <mxGeometry width="60" height="60" as="geometry" />
        </mxCell>
        <mxCell id="RoxqiaxIG3euoWtshmLt-3" value="0" style="text;html=1;strokeColor=none;fillColor=none;align=center;verticalAlign=middle;whiteSpace=wrap;rounded=0;fontSize=22;" parent="RoxqiaxIG3euoWtshmLt-5" vertex="1">
          <mxGeometry y="15" width="60" height="30" as="geometry" />
        </mxCell>
        <mxCell id="RoxqiaxIG3euoWtshmLt-7" value="" style="group" parent="1" vertex="1" connectable="0">
          <mxGeometry x="460" y="130" width="60" height="60" as="geometry" />
        </mxCell>
        <mxCell id="RoxqiaxIG3euoWtshmLt-8" value="" style="ellipse;whiteSpace=wrap;html=1;aspect=fixed;" parent="RoxqiaxIG3euoWtshmLt-7" vertex="1">
          <mxGeometry width="60" height="60" as="geometry" />
        </mxCell>
        <mxCell id="RoxqiaxIG3euoWtshmLt-9" value="1" style="text;html=1;strokeColor=none;fillColor=none;align=center;verticalAlign=middle;whiteSpace=wrap;rounded=0;fontSize=22;" parent="RoxqiaxIG3euoWtshmLt-7" vertex="1">
          <mxGeometry y="15" width="60" height="30" as="geometry" />
        </mxCell>
        <mxCell id="RoxqiaxIG3euoWtshmLt-16" value="" style="group" parent="1" vertex="1" connectable="0">
          <mxGeometry x="280" y="470" width="60" height="60" as="geometry" />
        </mxCell>
        <mxCell id="RoxqiaxIG3euoWtshmLt-17" value="" style="ellipse;whiteSpace=wrap;html=1;aspect=fixed;" parent="RoxqiaxIG3euoWtshmLt-16" vertex="1">
          <mxGeometry width="60" height="60" as="geometry" />
        </mxCell>
        <mxCell id="RoxqiaxIG3euoWtshmLt-18" value="4" style="text;html=1;strokeColor=none;fillColor=none;align=center;verticalAlign=middle;whiteSpace=wrap;rounded=0;fontSize=22;" parent="RoxqiaxIG3euoWtshmLt-16" vertex="1">
          <mxGeometry y="15" width="60" height="30" as="geometry" />
        </mxCell>
        <mxCell id="RoxqiaxIG3euoWtshmLt-19" value="" style="group" parent="1" vertex="1" connectable="0">
          <mxGeometry x="580" y="350" width="60" height="60" as="geometry" />
        </mxCell>
        <mxCell id="RoxqiaxIG3euoWtshmLt-20" value="" style="ellipse;whiteSpace=wrap;html=1;aspect=fixed;" parent="RoxqiaxIG3euoWtshmLt-19" vertex="1">
          <mxGeometry width="60" height="60" as="geometry" />
        </mxCell>
        <mxCell id="RoxqiaxIG3euoWtshmLt-21" value="6" style="text;html=1;strokeColor=none;fillColor=none;align=center;verticalAlign=middle;whiteSpace=wrap;rounded=0;fontSize=22;" parent="RoxqiaxIG3euoWtshmLt-19" vertex="1">
          <mxGeometry y="15" width="60" height="30" as="geometry" />
        </mxCell>
        <mxCell id="RoxqiaxIG3euoWtshmLt-22" value="" style="group" parent="1" vertex="1" connectable="0">
          <mxGeometry x="280" y="240" width="60" height="60" as="geometry" />
        </mxCell>
        <mxCell id="RoxqiaxIG3euoWtshmLt-23" value="" style="ellipse;whiteSpace=wrap;html=1;aspect=fixed;" parent="RoxqiaxIG3euoWtshmLt-22" vertex="1">
          <mxGeometry width="60" height="60" as="geometry" />
        </mxCell>
        <mxCell id="RoxqiaxIG3euoWtshmLt-24" value="2" style="text;html=1;strokeColor=none;fillColor=none;align=center;verticalAlign=middle;whiteSpace=wrap;rounded=0;fontSize=22;" parent="RoxqiaxIG3euoWtshmLt-22" vertex="1">
          <mxGeometry y="15" width="60" height="30" as="geometry" />
        </mxCell>
        <mxCell id="RoxqiaxIG3euoWtshmLt-25" value="" style="group" parent="1" vertex="1" connectable="0">
          <mxGeometry x="580" y="240" width="60" height="60" as="geometry" />
        </mxCell>
        <mxCell id="RoxqiaxIG3euoWtshmLt-26" value="" style="ellipse;whiteSpace=wrap;html=1;aspect=fixed;" parent="RoxqiaxIG3euoWtshmLt-25" vertex="1">
          <mxGeometry width="60" height="60" as="geometry" />
        </mxCell>
        <mxCell id="RoxqiaxIG3euoWtshmLt-27" value="7" style="text;html=1;strokeColor=none;fillColor=none;align=center;verticalAlign=middle;whiteSpace=wrap;rounded=0;fontSize=22;" parent="RoxqiaxIG3euoWtshmLt-25" vertex="1">
          <mxGeometry y="15" width="60" height="30" as="geometry" />
        </mxCell>
        <mxCell id="RoxqiaxIG3euoWtshmLt-28" value="" style="group" parent="1" vertex="1" connectable="0">
          <mxGeometry x="440" y="351.25" width="60" height="60" as="geometry" />
        </mxCell>
        <mxCell id="RoxqiaxIG3euoWtshmLt-29" value="" style="ellipse;whiteSpace=wrap;html=1;aspect=fixed;" parent="RoxqiaxIG3euoWtshmLt-28" vertex="1">
          <mxGeometry width="60" height="60" as="geometry" />
        </mxCell>
        <mxCell id="RoxqiaxIG3euoWtshmLt-30" value="5" style="text;html=1;strokeColor=none;fillColor=none;align=center;verticalAlign=middle;whiteSpace=wrap;rounded=0;fontSize=22;" parent="RoxqiaxIG3euoWtshmLt-28" vertex="1">
          <mxGeometry y="13.75" width="60" height="30" as="geometry" />
        </mxCell>
        <mxCell id="RoxqiaxIG3euoWtshmLt-54" value="" style="group" parent="1" vertex="1" connectable="0">
          <mxGeometry x="580" y="470" width="60" height="60" as="geometry" />
        </mxCell>
        <mxCell id="RoxqiaxIG3euoWtshmLt-55" value="" style="ellipse;whiteSpace=wrap;html=1;aspect=fixed;" parent="RoxqiaxIG3euoWtshmLt-54" vertex="1">
          <mxGeometry width="60" height="60" as="geometry" />
        </mxCell>
        <mxCell id="RoxqiaxIG3euoWtshmLt-56" value="9" style="text;html=1;strokeColor=none;fillColor=none;align=center;verticalAlign=middle;whiteSpace=wrap;rounded=0;fontSize=22;" parent="RoxqiaxIG3euoWtshmLt-54" vertex="1">
          <mxGeometry y="15" width="60" height="30" as="geometry" />
        </mxCell>
        <mxCell id="RoxqiaxIG3euoWtshmLt-62" value="" style="edgeStyle=orthogonalEdgeStyle;rounded=0;orthogonalLoop=1;jettySize=auto;html=1;" parent="1" source="RoxqiaxIG3euoWtshmLt-12" target="RoxqiaxIG3euoWtshmLt-18" edge="1">
          <mxGeometry relative="1" as="geometry" />
        </mxCell>
        <mxCell id="RoxqiaxIG3euoWtshmLt-13" value="" style="group" parent="1" vertex="1" connectable="0">
          <mxGeometry x="720" y="240" width="60" height="60" as="geometry" />
        </mxCell>
        <mxCell id="RoxqiaxIG3euoWtshmLt-14" value="" style="ellipse;whiteSpace=wrap;html=1;aspect=fixed;" parent="RoxqiaxIG3euoWtshmLt-13" vertex="1">
          <mxGeometry width="60" height="60" as="geometry" />
        </mxCell>
        <mxCell id="RoxqiaxIG3euoWtshmLt-15" value="8" style="text;html=1;strokeColor=none;fillColor=none;align=center;verticalAlign=middle;whiteSpace=wrap;rounded=0;fontSize=22;" parent="RoxqiaxIG3euoWtshmLt-13" vertex="1">
          <mxGeometry y="15" width="60" height="30" as="geometry" />
        </mxCell>
        <mxCell id="RoxqiaxIG3euoWtshmLt-59" value="" style="edgeStyle=orthogonalEdgeStyle;rounded=0;orthogonalLoop=1;jettySize=auto;html=1;" parent="1" source="RoxqiaxIG3euoWtshmLt-3" target="RoxqiaxIG3euoWtshmLt-9" edge="1">
          <mxGeometry relative="1" as="geometry" />
        </mxCell>
        <mxCell id="RoxqiaxIG3euoWtshmLt-60" value="" style="edgeStyle=orthogonalEdgeStyle;rounded=0;orthogonalLoop=1;jettySize=auto;html=1;" parent="1" source="RoxqiaxIG3euoWtshmLt-2" target="RoxqiaxIG3euoWtshmLt-24" edge="1">
          <mxGeometry relative="1" as="geometry" />
        </mxCell>
        <mxCell id="RoxqiaxIG3euoWtshmLt-61" value="" style="edgeStyle=orthogonalEdgeStyle;rounded=0;orthogonalLoop=1;jettySize=auto;html=1;" parent="1" source="RoxqiaxIG3euoWtshmLt-24" target="RoxqiaxIG3euoWtshmLt-12" edge="1">
          <mxGeometry relative="1" as="geometry" />
        </mxCell>
        <mxCell id="RoxqiaxIG3euoWtshmLt-64" value="" style="edgeStyle=orthogonalEdgeStyle;rounded=0;orthogonalLoop=1;jettySize=auto;html=1;" parent="1" source="RoxqiaxIG3euoWtshmLt-30" target="RoxqiaxIG3euoWtshmLt-21" edge="1">
          <mxGeometry relative="1" as="geometry" />
        </mxCell>
        <mxCell id="RoxqiaxIG3euoWtshmLt-65" value="" style="edgeStyle=orthogonalEdgeStyle;rounded=0;orthogonalLoop=1;jettySize=auto;html=1;" parent="1" source="RoxqiaxIG3euoWtshmLt-24" target="RoxqiaxIG3euoWtshmLt-27" edge="1">
          <mxGeometry relative="1" as="geometry" />
        </mxCell>
        <mxCell id="RoxqiaxIG3euoWtshmLt-67" value="" style="group" parent="1" vertex="1" connectable="0">
          <mxGeometry x="280" y="350" width="62.5" height="62.5" as="geometry" />
        </mxCell>
        <mxCell id="RoxqiaxIG3euoWtshmLt-11" value="" style="ellipse;whiteSpace=wrap;html=1;aspect=fixed;" parent="RoxqiaxIG3euoWtshmLt-67" vertex="1">
          <mxGeometry width="62.5" height="62.5" as="geometry" />
        </mxCell>
        <mxCell id="RoxqiaxIG3euoWtshmLt-12" value="3" style="text;html=1;strokeColor=none;fillColor=none;align=center;verticalAlign=middle;whiteSpace=wrap;rounded=0;fontSize=22;" parent="RoxqiaxIG3euoWtshmLt-67" vertex="1">
          <mxGeometry y="15" width="60" height="30" as="geometry" />
        </mxCell>
        <mxCell id="RoxqiaxIG3euoWtshmLt-68" value="" style="edgeStyle=orthogonalEdgeStyle;rounded=0;orthogonalLoop=1;jettySize=auto;html=1;" parent="1" source="RoxqiaxIG3euoWtshmLt-12" target="RoxqiaxIG3euoWtshmLt-30" edge="1">
          <mxGeometry relative="1" as="geometry" />
        </mxCell>
        <mxCell id="RoxqiaxIG3euoWtshmLt-69" value="" style="edgeStyle=orthogonalEdgeStyle;rounded=0;orthogonalLoop=1;jettySize=auto;html=1;" parent="1" source="RoxqiaxIG3euoWtshmLt-21" target="RoxqiaxIG3euoWtshmLt-27" edge="1">
          <mxGeometry relative="1" as="geometry" />
        </mxCell>
        <mxCell id="RoxqiaxIG3euoWtshmLt-70" value="" style="edgeStyle=orthogonalEdgeStyle;rounded=0;orthogonalLoop=1;jettySize=auto;html=1;" parent="1" source="RoxqiaxIG3euoWtshmLt-27" target="RoxqiaxIG3euoWtshmLt-15" edge="1">
          <mxGeometry relative="1" as="geometry" />
        </mxCell>
        <mxCell id="RoxqiaxIG3euoWtshmLt-71" value="" style="edgeStyle=orthogonalEdgeStyle;rounded=0;orthogonalLoop=1;jettySize=auto;html=1;" parent="1" source="RoxqiaxIG3euoWtshmLt-21" target="RoxqiaxIG3euoWtshmLt-56" edge="1">
          <mxGeometry relative="1" as="geometry" />
        </mxCell>
        <mxCell id="RoxqiaxIG3euoWtshmLt-72" value="" style="endArrow=classic;html=1;rounded=0;exitX=1;exitY=1;exitDx=0;exitDy=0;edgeStyle=orthogonalEdgeStyle;fillColor=#f8cecc;strokeColor=#b85450;" parent="1" source="RoxqiaxIG3euoWtshmLt-11" edge="1">
          <mxGeometry width="50" height="50" relative="1" as="geometry">
            <mxPoint x="390" y="320" as="sourcePoint" />
            <mxPoint x="750" y="300" as="targetPoint" />
          </mxGeometry>
        </mxCell>
        <mxCell id="RoxqiaxIG3euoWtshmLt-73" value="" style="endArrow=classic;html=1;rounded=0;exitX=0.5;exitY=1;exitDx=0;exitDy=0;entryX=1;entryY=0.5;entryDx=0;entryDy=0;edgeStyle=orthogonalEdgeStyle;fillColor=#fff2cc;strokeColor=#d6b656;" parent="1" source="RoxqiaxIG3euoWtshmLt-29" target="RoxqiaxIG3euoWtshmLt-15" edge="1">
          <mxGeometry width="50" height="50" relative="1" as="geometry">
            <mxPoint x="390" y="320" as="sourcePoint" />
            <mxPoint x="440" y="270" as="targetPoint" />
          </mxGeometry>
        </mxCell>
        <mxCell id="RoxqiaxIG3euoWtshmLt-74" value="" style="endArrow=classic;html=1;rounded=0;exitX=0.5;exitY=0;exitDx=0;exitDy=0;entryX=1;entryY=0.5;entryDx=0;entryDy=0;edgeStyle=orthogonalEdgeStyle;fillColor=#f8cecc;strokeColor=#b85450;" parent="1" source="RoxqiaxIG3euoWtshmLt-14" target="RoxqiaxIG3euoWtshmLt-56" edge="1">
          <mxGeometry width="50" height="50" relative="1" as="geometry">
            <mxPoint x="390" y="320" as="sourcePoint" />
            <mxPoint x="440" y="270" as="targetPoint" />
          </mxGeometry>
        </mxCell>
        <mxCell id="RoxqiaxIG3euoWtshmLt-75" value="" style="endArrow=classic;html=1;rounded=0;entryX=0;entryY=0.5;entryDx=0;entryDy=0;fillColor=#e1d5e7;strokeColor=#9673a6;" parent="1" target="RoxqiaxIG3euoWtshmLt-56" edge="1">
          <mxGeometry width="50" height="50" relative="1" as="geometry">
            <mxPoint x="320" y="410" as="sourcePoint" />
            <mxPoint x="440" y="270" as="targetPoint" />
          </mxGeometry>
        </mxCell>
      </root>
    </mxGraphModel>
  </diagram>
</mxfile>
